<svg width="38.462769" height="44.841736" viewBox="0 0 38.4628 44.8417" fill="none" xmlns="http://www.w3.org/2000/svg">
    <defs/>
    <rect id="Frame 1138822910" width="32.671207" height="40.690784" transform="translate(6.109497 0.000000) rotate(8.000000)" fill="#FFFFFF" fill-opacity="0"/>
    <path id="Star 17" d="M27.03 9.46C26.98 9.71 26.78 9.9 26.52 9.94L23.74 10.28C23.16 10.35 23.01 11.12 23.52 11.4L25.97 12.76C26.2 12.88 26.32 13.14 26.27 13.4L25.73 16.15C25.62 16.72 26.31 17.1 26.73 16.7L28.78 14.79C28.97 14.61 29.25 14.58 29.48 14.7L31.93 16.06C32.44 16.34 33.01 15.81 32.77 15.28L31.58 12.74C31.47 12.51 31.53 12.23 31.72 12.05L33.77 10.14C34.19 9.74 33.86 9.03 33.29 9.11L30.5 9.45C30.25 9.48 30 9.34 29.89 9.1L28.7 6.56C28.46 6.04 27.68 6.13 27.57 6.7L27.03 9.46Z" stroke="#FFFFFF" stroke-opacity="1.000000" stroke-width="1.410000"/>
    <path id="Star 18" d="M17.23 6.18C17.21 6.22 17.16 6.24 17.12 6.24L15.34 5.98C15.24 5.97 15.19 6.09 15.26 6.16L16.55 7.41C16.58 7.44 16.59 7.48 16.57 7.52L15.78 9.14C15.74 9.23 15.83 9.32 15.92 9.27L17.51 8.43C17.55 8.41 17.59 8.41 17.62 8.44L18.92 9.69C18.99 9.76 19.1 9.7 19.09 9.6L18.77 7.83C18.77 7.79 18.79 7.75 18.83 7.73L20.41 6.88C20.5 6.84 20.48 6.71 20.38 6.69L18.6 6.44C18.56 6.44 18.52 6.4 18.52 6.36L18.2 4.59C18.19 4.49 18.06 4.48 18.01 4.56L17.23 6.18Z" stroke="#FFFFFF" stroke-opacity="1.000000" stroke-width="1.410000"/>
    <circle id="Oval 1" r="6.508706" transform="matrix(0.990268 0.139173 -0.139173 0.990268 15.2578 19.9214)" stroke="#FFFFFF" stroke-opacity="1.000000" stroke-width="1.410000"/>
    <path id="Rectangle 2108" d="M17.93 25.8C22.44 26.43 25.58 30.6 24.94 35.11L24.03 41.59C23.88 42.68 22.87 43.44 21.77 43.29L2.42 40.57C1.33 40.41 0.57 39.4 0.72 38.31L1.64 31.74C2.27 27.28 6.39 24.18 10.85 24.81" stroke="#FFFFFF" stroke-opacity="1.000000" stroke-width="1.410000"/>
    <path id="Rectangle 2109" d="M15.09 26.45C15.6 26.52 15.97 26.96 15.95 27.46L15.77 35.68C15.76 36.06 15.54 36.39 15.21 36.56L13.28 37.51C12.9 37.69 12.45 37.62 12.14 37.33L10.68 35.93C10.42 35.67 10.31 35.3 10.41 34.95L12.5 26.98C12.63 26.49 13.1 26.17 13.6 26.24L15.09 26.45Z" stroke="#FFFFFF" stroke-opacity="1.000000" stroke-width="1.410000"/>
</svg>
